<?xml version="1.0" standalone="no"?>
<!DOCTYPE svg PUBLIC "-//W3C//DTD SVG 1.1//EN"
  "http://www.w3.org/Graphics/SVG/1.1/DTD/svg11.dtd">
<svg version="1.1" xmlns="http://www.w3.org/2000/svg" xmlns:xlink="http://www.w3.org/1999/xlink" width="1792" height="1063" viewBox="-992 -32 1792 1063" id="ccdiagram"><filter id="grayscale"><feColorMatrix type="matrix" values="0.3333 0.3333 0.3333 0 0 0.3333 0.3333 0.3333 0 0 0.3333 0.3333 0.3333 0 0 0 0 0 1 0"></feColorMatrix></filter><defs><style type="text/css">@import url('https://fonts.googleapis.com/css?family=Open+Sans:400,700|Inconsolata:400');</style></defs><g><g style="pointer-events: none;"><g><pattern id="gridPatternMinor" x="0" y="37" width="128" height="74" patternUnits="userSpaceOnUse"><path d="M 0 0 L 128 74" stroke="#eee" stroke-width="1"></path><path d="M 128 0 L 0 74" stroke="#eee" stroke-width="1"></path></pattern><polygon points="0 0, 768 444, -192 999, -960 555" fill="url(#gridPatternMinor)"></polygon></g><polygon points="-960 555, -960 565, -192 1009, -192 999" stroke-linejoin="round" stroke="#54626f" stroke-width="1" fill="#f9f9f9"></polygon><polygon points="-192 1009, 768 454, 768 444, -192 999" stroke-linejoin="round" stroke="#54626f" stroke-width="1" fill="#e2e2e2"></polygon></g><g pointer-events="auto"></g><g style="pointer-events: none;"><g><pattern id="gridPatternMajor" x="0" y="37" width="128" height="74" patternUnits="userSpaceOnUse"><path d="M 64 0 L 128 37 64 74 0 37 z" stroke="#54626f" stroke-width="1" fill="none"></path></pattern><polygon points="0 0, 768 444, -192 999, -960 555" fill="url(#gridPatternMajor)"></polygon></g></g><g pointer-events="auto"></g><g></g><g pointer-events="auto"></g><g></g><g pointer-events="auto"><g opacity="1"><g id="afcb84b9-5c37-404c-959b-95772e5d890a"><svg x="-144" y="324" overflow="visible"><polygon points="0 0, 353 204, 289 241, -64 37" fill="#f5b720"></polygon><polygon points="0 0, 353 204, 289 241, -64 37" fill="none" stroke-width="20" stroke="#f5b720" opacity="1"></polygon><g cursor="nwse-resize"><polygon points="0 0, -19 -11, 13 -30, -83 -11, -115 44, -83 26, -64 37" fill="#f5b720"></polygon><polygon points="353 204, 372 215, 404 196, 372 252, 276 270, 308 252, 289 241" fill="#f5b720"></polygon></g></svg></g></g></g><g pointer-events="none"></g><g pointer-events="auto"><g><g cursor="cell"><line x1="128" y1="500" x2="-435" y2="377" stroke="red" stroke-width="8" opacity="0"></line><line x1="128" y1="500" x2="-435" y2="377" stroke="#8ed1fc" stroke-width="2" stroke-linecap="round"></line></g></g><g><g cursor="cell"><line x1="-111" y1="508" x2="-97" y2="378" stroke="red" stroke-width="8" opacity="0"></line><line x1="-111" y1="508" x2="-97" y2="378" stroke="#009688" stroke-width="2" stroke-linecap="round"></line><polygon points="-96 370, -109 384, -97 380, -86 385, -96 370" stroke-linejoin="round" fill="#009688" stroke="#009688" stroke-width="1"></polygon></g></g><g><g cursor="cell"><line x1="-492" y1="728" x2="-461" y2="385" stroke="red" stroke-width="8" opacity="0"></line><line x1="-492" y1="728" x2="-461" y2="385" stroke="#8ed1fc" stroke-width="2" stroke-linecap="round"></line><polygon points="-461 377, -474 391, -462 388, -451 392, -461 377" stroke-linejoin="round" fill="#8ed1fc" stroke="#8ed1fc" stroke-width="1"></polygon></g></g><g><g cursor="cell"><line x1="16" y1="435" x2="214" y2="320" stroke="red" stroke-width="8" opacity="0"></line><line x1="16" y1="435" x2="214" y2="320" stroke="#8bc34a" stroke-width="2" stroke-linecap="round"></line><polygon points="224 315, 198 320, 212 322, 215 329, 224 315" stroke-linejoin="round" fill="#8bc34a" stroke="#8bc34a" stroke-width="1"></polygon></g></g><g><g cursor="cell"><line x1="-96" y1="370" x2="-435" y2="377" stroke="red" stroke-width="8" opacity="0"></line><line x1="-96" y1="370" x2="-435" y2="377" stroke="#8ed1fc" stroke-width="2" stroke-linecap="round"></line></g></g><g><g cursor="cell"><line x1="16" y1="435" x2="-435" y2="377" stroke="red" stroke-width="8" opacity="0"></line><line x1="16" y1="435" x2="-435" y2="377" stroke="#8ed1fc" stroke-width="2" stroke-linecap="round"></line></g></g><g><g cursor="cell"><line x1="-492" y1="728" x2="-202" y2="561" stroke="red" stroke-width="8" opacity="0"></line><line x1="-492" y1="728" x2="-202" y2="561" stroke="#009688" stroke-width="2" stroke-linecap="round"></line><polygon points="-192 555, -218 560, -204 562, -201 570, -192 555" stroke-linejoin="round" fill="#009688" stroke="#009688" stroke-width="1"></polygon></g></g><g><g cursor="cell"><line x1="-111" y1="508" x2="128" y2="500" stroke="red" stroke-width="8" opacity="0"></line><line x1="-111" y1="508" x2="128" y2="500" stroke="#009688" stroke-width="2" stroke-linecap="round"></line></g></g><g><g cursor="cell"><line x1="-96" y1="370" x2="224" y2="315" stroke="red" stroke-width="8" opacity="0"></line><line x1="-96" y1="370" x2="224" y2="315" stroke="#8bc34a" stroke-width="2" stroke-linecap="round"></line></g></g><g><g cursor="cell"><line x1="128" y1="500" x2="224" y2="315" stroke="red" stroke-width="8" opacity="0"></line><line x1="128" y1="500" x2="224" y2="315" stroke="#8bc34a" stroke-width="2" stroke-linecap="round"></line></g></g><g><g cursor="cell"><line x1="-111" y1="508" x2="16" y2="435" stroke="red" stroke-width="8" opacity="0"></line><line x1="-111" y1="508" x2="16" y2="435" stroke="#009688" stroke-width="2" stroke-linecap="round"></line></g></g></g><g pointer-events="auto"><g opacity="1"><g id="3fda99e1-a95b-4755-98c9-eb0f2c247528" transform="translate(0 0)"><svg x="192" y="195" height="137.556" width="128" viewBox="0 0 33.867 36.395"><g fill="#4286c5" font-family="sans-serif" font-size="3.175" stroke-width=".265" style="line-height: 0%;"><path d="M.187 12.17v14.365l16.586 9.577V21.747l-4.146-7.183-8.293-4.787z" fill="#d2d2d4" stroke-width=".264"></path><path d="M20.955 14.564l8.292-4.787 4.147 2.394v14.364l-16.587 9.576V21.748z" fill="#b8b8bb" stroke-width=".264"></path><path d="M4.334 9.777l8.292 4.788h8.293l8.293-4.788V4.988L20.919.2h-8.293L4.334 4.988zM12.856 14.565h8.294l-4.147 7.182z" fill="#ececed" stroke-width=".264"></path><path d="M4.394 4.806v4.789L.247 11.988zM29.212 9.595v-4.79l4.146 7.183z" fill="#d2d2d4" stroke-width=".264"></path><path d="M208.47 90.288l4.345-4.346 4.346 8.693z" fill="none" stroke="#83838a" stroke-width=".264" transform="scale(1.34943 .77909) rotate(45 195.366 -185.783)"></path><path d="M199.734 94.678l13.037 13.037h17.383L217.117 94.68l-8.692-4.347h-8.69zM212.819 85.928v-8.69h4.345l13.037 13.037.001 17.382-13.037-13.037zM199.734 90.333h8.69l4.347-4.346v-8.69l-4.347-4.347h-8.69l-4.346 4.346v8.69z" fill="none" stroke="#83838a" stroke-width=".257" transform="scale(1.34943 .77909) rotate(45 195.366 -185.783)"></path><path d="M212.855 107.631l-13.037-13.037-4.346-8.692v-8.69l4.346-4.347h8.69l8.692 4.346 13.038 13.038v17.383z" fill="none" stroke="#000000" stroke-width=".514" transform="scale(1.34943 .77909) rotate(45 195.366 -185.783)"></path><g style="line-height: 0%;"><path d="M15.745 6.453l.69.399q.967.558 1.826.616.865.055 1.596-.367.737-.425.683-.862-.048-.434-.907-.93l-.953-.55zm6.303 1.828q-1.596.921-3.443.831-1.839-.086-3.678-1.148l-.9-.519-3.517 2.03-2.096-1.21 9.887-5.708L21.46 4.38q1.8 1.039 1.955 2.026.169.988-1.366 1.875z" font-family="Open Sans" font-size="14.515" stroke-width=".258" style="line-height: 1.25;"></path></g></g></svg></g></g><g opacity="1"><g id="e9a0bbda-2bfd-441d-80c5-1ffd92780e8c" transform="translate(0 0)"><svg x="-499" y="268" height="115.695" width="100.625" viewBox="0 0 26.624 30.611"><g fill-rule="evenodd"><path d="M13.312.306v15l12.99-7.5z" fill="#4286c5" stroke-width=".265"></path><path d="M.322 7.806l12.99 7.5v-15z" fill="#26527b" stroke-width=".265"></path><path d="M13.312.306v15" fill="none" stroke="#b7d1e9" stroke-width=".265"></path><path d="M13.312 15.306l12.99-7.5-6.495 18.75-6.495 3.75z" fill="#26527b" stroke-width=".265"></path><path d="M.322 7.806l12.99 7.5v15l-6.495-3.75z" fill="#326ca2" stroke-width=".265"></path><path d="M.322 7.806l12.99 7.5 12.99-7.5-12.99 7.5v15" fill="none" stroke="#deeaf5" stroke-width=".265"></path><path d="M13.312.306l-12.99 7.5 6.495 18.75 6.495 3.75 6.495-3.75 6.495-18.75z" fill="none" stroke="#000000" stroke-width=".529"></path></g></svg></g></g><g opacity="1"><g id="7a94abd9-e58a-4f03-86dd-baa712d3dc96" transform="translate(0 0)"><svg x="-208" y="472" height="94" width="97" fill-rule="evenodd"><path d="M0 18.6v18.6l32.333 18.6h32.334L97 37.2V18.6L64.667 0H32.333L0 18.6z" fill="#ececed"></path><path d="M64.667 55.8L97 37.2v37.2L64.667 93V55.8z" fill="#b8b8bb"></path><path d="M32.333 55.8h32.334V93H32.333V55.8zM0 37.2v37.2L32.333 93V55.8L0 37.2z" fill="#d2d2d4"></path><g fill="none" stroke="#83838a" stroke-width="1.04"><path d="M.955 37.877L32.333 55.8h32.334l31.378-17.923M32.333 55.8v36.211M64.667 55.8v36.574"></path></g><path d="M97 18.6v55.8L64.667 93H32.333L0 74.4V18.6L32.333 0h32.334L97 18.6zM32.865 1.989L1.989 19.751v53.498l30.876 17.762h31.27l30.876-17.762V19.751L64.135 1.989h-31.27z" fill="#000000"></path><path d="M69.912 15.583c11.818 6.798 11.818 17.836 0 24.635-11.817 6.798-31.007 6.798-42.824 0-11.818-6.799-11.818-17.837 0-24.635 11.817-6.799 31.007-6.799 42.824 0z" fill="#4286c5"></path><path d="M49.584 14.774c1.824 1.049 1.824 2.753 0 3.802-1.824 1.05-4.786 1.05-6.61 0-1.824-1.049-1.824-2.753 0-3.802 1.824-1.05 4.786-1.05 6.61 0zM60.451 21.025c1.825 1.049 1.825 2.753 0 3.803-1.824 1.049-4.786 1.049-6.61 0-1.824-1.05-1.824-2.754 0-3.803s4.786-1.049 6.61 0zM71.319 27.276c1.824 1.05 1.824 2.754 0 3.803-1.825 1.049-4.787 1.049-6.611 0-1.824-1.049-1.824-2.753 0-3.803 1.824-1.049 4.786-1.049 6.611 0zM38.497 33.654c1.824 1.05 1.824 2.754 0 3.803-1.825 1.05-4.787 1.05-6.611 0-1.824-1.049-1.824-2.753 0-3.803 1.824-1.049 4.786-1.049 6.611 0z" fill="#ffffff"></path><path d="M47.458 15.878c.453.26.393.717-.133 1.02-.526.303-1.32.337-1.773.076-.452-.26-.392-.717.133-1.019.526-.303 1.321-.337 1.773-.077z" fill="#ffffff"></path><path d="M48.111 15.621c1.012.582 1.012 1.526 0 2.108-1.011.582-2.653.582-3.664 0-1.012-.582-1.012-1.526 0-2.108 1.011-.582 2.653-.582 3.664 0zM58.978 21.872c1.012.582 1.012 1.527 0 2.108-1.011.582-2.653.582-3.664 0-1.012-.581-1.012-1.526 0-2.108 1.011-.581 2.653-.581 3.664 0zM69.846 28.124c1.011.581 1.011 1.526 0 2.108-1.012.582-2.654.582-3.665 0-1.011-.582-1.011-1.527 0-2.108 1.011-.582 2.653-.582 3.665 0z" fill="#4286c5"></path><path d="M37.024 34.502c1.011.582 1.011 1.526 0 2.108-1.012.582-2.654.582-3.665 0-1.011-.582-1.011-1.526 0-2.108 1.011-.582 2.653-.582 3.665 0z" fill="#ffffff"></path><g fill="#ffffff"><path d="M52.301 25.172L37.719 33.56l.482.834 14.584-8.388-.484-.834z"></path><path d="M46.993 26.089l6.654-1.146-4.324 5.168c.189-1.691-.757-3.313-2.33-4.022z" stroke="#ffffff" stroke-width=".36"></path></g><g fill="#ffffff"><path d="M43.488 19.937l-6.057 13.797.886.387 6.056-13.798-.885-.386z"></path><path d="M39.76 23.812l4.676-4.854-.405 6.716c-.855-1.474-2.582-2.221-4.271-1.862z" stroke="#ffffff" stroke-width=".36"></path></g><g fill="#ffffff"><path d="M61.953 30.061l-23.985 3.483.14.955 23.985-3.486-.14-.952z"></path><path d="M56.68 28.957l6.608 1.387-5.936 3.209c.804-1.503.526-3.358-.672-4.596h0z" stroke="#ffffff" stroke-width=".36"></path></g><path d="M37.96 33.977l13.12-7.547M37.873 33.927l5.792-13.134M38.037 34.022l22.478-3.281" fill="#ffffff" stroke="#ffffff" stroke-width="1.93"></path></svg></g></g><g opacity="1"><g id="2685515d-0fdf-4c31-b26d-7cf5ad8c321d" transform="translate(0 0)"><svg x="-552" y="663" height="95.068" width="63" viewBox="0 0 16.669 25.153"><path d="M16.668 22.903q0 1.64-.864 2.091-.865.451-2.297-.376L3.161 18.645q-1.433-.827-2.297-2.276Q.001 14.921 0 13.28q0-.723.042-1.39.042-.666.166-1.394.124-.727.313-1.302.19-.575.51-1.039.319-.464.733-.683.414-.22 1.012-.147.598.073 1.32.49.107.06.497.58.391.52.882 1.165.491.646 1.279 1.394.788.75 1.58 1.207.793.458 1.58.618.788.161 1.28.083.49-.079.881-.147.39-.069.497-.007.722.416 1.32 1.035.598.619 1.013 1.315.414.697.734 1.531t.509 1.627q.19.793.313 1.664.124.872.166 1.586.042.713.042 1.438zM12.88 8.51q0 2.173-1.332 2.942-1.332.769-3.214-.318-1.882-1.086-3.214-3.393Q3.79 5.434 3.79 3.26q0-2.173 1.331-2.942 1.332-.77 3.214.317t3.214 3.394q1.332 2.306 1.332 4.48z" fill="#000" stroke="#000000" stroke-width=".268"></path></svg></g></g></g><g pointer-events="auto"><g opacity="1"><g id="9767d4f3-077a-46d6-ba89-d4ae3fdbcab3" transform="translate(0 0)"><svg x="-96" y="370" overflow="visible"><g transform="scale(0.5000000000000001) "><svg x="-88.5" y="-76" width="177" height="152"><svg width="177" height="152" viewBox="-0.5 -0.5 177 152" style="background-color:#fff"><defs><filter id="a"><feGaussianBlur in="SourceAlpha" stdDeviation="1.7" result="blur"></feGaussianBlur><feOffset in="blur" dx="3" dy="3" result="offsetBlur"></feOffset><feFlood flood-color="#3D4574" flood-opacity=".4" result="offsetColor"></feFlood><feComposite in="offsetColor" in2="offsetBlur" operator="in" result="offsetBlur"></feComposite><feBlend in="SourceGraphic" in2="offsetBlur"></feBlend></filter></defs><g filter="url(#a)" pointer-events="all"><path d="M0 50L80 0l80 50z" fill="#f7ebcf" stroke="#f7ebcf" stroke-miterlimit="10"></path><path fill="#f7ebcf" stroke="#f7ebcf" d="M10 55h20v60H10zM40 55h20v60H40zM70 55h20v60H70zM100 55h20v60h-20zM130 55h20v60h-20zM0 125h160v20H0z"></path><path d="M10 50L90 0l80 50z" fill="navy" stroke="navy" stroke-miterlimit="10"></path><path fill="navy" stroke="navy" d="M20 55h20v60H20zM50 55h20v60H50zM80 55h20v60H80zM110 55h20v60h-20zM140 55h20v60h-20zM10 125h160v20H10z"></path></g></svg></svg></g></svg></g></g><g opacity="1"><g id="62962fc6-d424-4a07-93c2-cdffe0e48d36" transform="translate(0 0)"><svg x="128" y="500" overflow="visible"><g transform="scale(0.5000000000000001) "><svg x="-88.5" y="-76" width="177" height="152"><svg width="177" height="152" viewBox="-0.5 -0.5 177 152" style="background-color:#fff"><defs><filter id="a"><feGaussianBlur in="SourceAlpha" stdDeviation="1.7" result="blur"></feGaussianBlur><feOffset in="blur" dx="3" dy="3" result="offsetBlur"></feOffset><feFlood flood-color="#3D4574" flood-opacity=".4" result="offsetColor"></feFlood><feComposite in="offsetColor" in2="offsetBlur" operator="in" result="offsetBlur"></feComposite><feBlend in="SourceGraphic" in2="offsetBlur"></feBlend></filter></defs><g filter="url(#a)" pointer-events="all"><path d="M0 50L80 0l80 50z" fill="#f7ebcf" stroke="#f7ebcf" stroke-miterlimit="10"></path><path fill="#f7ebcf" stroke="#f7ebcf" d="M10 55h20v60H10zM40 55h20v60H40zM70 55h20v60H70zM100 55h20v60h-20zM130 55h20v60h-20zM0 125h160v20H0z"></path><path d="M10 50L90 0l80 50z" fill="navy" stroke="navy" stroke-miterlimit="10"></path><path fill="navy" stroke="navy" d="M20 55h20v60H20zM50 55h20v60H50zM80 55h20v60H80zM110 55h20v60h-20zM140 55h20v60h-20zM10 125h160v20H10z"></path></g></svg></svg></g></svg></g></g><g opacity="1"><g id="00084c5a-016c-4503-ae55-14c75184ec28" transform="translate(0 0)"><svg x="16" y="435" overflow="visible"><g transform="scale(0.5000000000000001) "><svg x="-88.5" y="-76" width="177" height="152"><svg width="177" height="152" viewBox="-0.5 -0.5 177 152" style="background-color:#fff"><defs><filter id="a"><feGaussianBlur in="SourceAlpha" stdDeviation="1.7" result="blur"></feGaussianBlur><feOffset in="blur" dx="3" dy="3" result="offsetBlur"></feOffset><feFlood flood-color="#3D4574" flood-opacity=".4" result="offsetColor"></feFlood><feComposite in="offsetColor" in2="offsetBlur" operator="in" result="offsetBlur"></feComposite><feBlend in="SourceGraphic" in2="offsetBlur"></feBlend></filter></defs><g filter="url(#a)" pointer-events="all"><path d="M0 50L80 0l80 50z" fill="#f7ebcf" stroke="#f7ebcf" stroke-miterlimit="10"></path><path fill="#f7ebcf" stroke="#f7ebcf" d="M10 55h20v60H10zM40 55h20v60H40zM70 55h20v60H70zM100 55h20v60h-20zM130 55h20v60h-20zM0 125h160v20H0z"></path><path d="M10 50L90 0l80 50z" fill="navy" stroke="navy" stroke-miterlimit="10"></path><path fill="navy" stroke="navy" d="M20 55h20v60H20zM50 55h20v60H50zM80 55h20v60H80zM110 55h20v60h-20zM140 55h20v60h-20zM10 125h160v20H10z"></path></g></svg></svg></g></svg></g></g></g><g pointer-events="auto"></g><g pointer-events="auto"><g opacity="1"><g id="323daae5-e898-4314-a148-a68d3f7b6432" transform="translate(0 0)"><svg x="-288" y="629" overflow="visible"><text stroke="#ffffff" stroke-width="4" font-family="Open Sans" y="36.5" font-size="25pt" fill="#009688" font-weight="bold" transform="matrix(0.707 0.409 -0.707 0.409 0 0)" xml:space="preserve"><tspan x="8" dy="0">gRPC</tspan></text><text font-family="Open Sans" y="36.5" font-size="25pt" fill="#009688" font-weight="bold" transform="matrix(0.707 0.409 -0.707 0.409 0 0)" xml:space="preserve"><tspan x="8" dy="0">gRPC</tspan></text></svg></g></g><g opacity="1"><g id="df7a0446-1cff-4e18-8af4-a144ab32ed44" transform="translate(0 0)"><svg x="-448" y="500" overflow="visible"><text stroke="#ffffff" stroke-width="4" font-family="Open Sans" y="36.5" font-size="25pt" fill="#8ed1fc" font-weight="bold" transform="matrix(0.707 0.409 -0.707 0.409 0 0)" xml:space="preserve"><tspan x="8" dy="0">S3-REST</tspan></text><text font-family="Open Sans" y="36.5" font-size="25pt" fill="#8ed1fc" font-weight="bold" transform="matrix(0.707 0.409 -0.707 0.409 0 0)" xml:space="preserve"><tspan x="8" dy="0">S3-REST</tspan></text></svg></g></g><g opacity="1"><g id="6fbb720b-69c0-4c30-9765-2022bc94e919" transform="translate(0 0)"><svg x="224" y="407" overflow="visible"><text stroke="#ffffff" stroke-width="4" font-family="Open Sans" y="36.5" font-size="25pt" fill="#8bc34a" font-weight="bold" transform="matrix(0.707 0.409 -0.707 0.409 0 0)" xml:space="preserve"><tspan x="8" dy="0">Postgres</tspan></text><text font-family="Open Sans" y="36.5" font-size="25pt" fill="#8bc34a" font-weight="bold" transform="matrix(0.707 0.409 -0.707 0.409 0 0)" xml:space="preserve"><tspan x="8" dy="0">Postgres</tspan></text></svg></g></g></g><g></g></g></svg>